<svg width="280" height="280" viewBox="0 0 280 280" fill="none" xmlns="http://www.w3.org/2000/svg">
<path opacity="0.1" d="M80 280C55.6667 277 31.5 270.417 7.5 260.25C-16.5 250.083 -37.9167 235.5 -56.75 216.5C-75.5833 197.5 -90.8333 173.5 -102.5 144.5C-114.167 115.5 -120 80.6667 -120 40V20H-100C-83 20 -65.5 22.1667 -47.5 26.5C-29.5 30.8333 -12.6667 37.3333 3 46C7 17.3333 16.0833 -12.0833 30.25 -42.25C44.4167 -72.4167 61 -98.3333 80 -120C99 -98.3333 115.583 -72.4167 129.75 -42.25C143.917 -12.0833 153 17.3333 157 46C172.667 37.3333 189.5 30.8333 207.5 26.5C225.5 22.1667 243 20 260 20H280V40C280 80.6667 274.167 115.5 262.5 144.5C250.833 173.5 235.583 197.5 216.75 216.5C197.917 235.5 176.583 250.083 152.75 260.25C128.917 270.417 104.667 277 80 280ZM79 239C75.3333 183.667 58.9167 141.833 29.75 113.5C0.583336 85.1667 -35.6667 67.6667 -79 61C-75.3333 118 -58.4167 160.5 -28.25 188.5C1.91666 216.5 37.6667 233.333 79 239ZM80 112C85 104.667 91.0833 97.0833 98.25 89.25C105.417 81.4167 112.333 74.6667 119 69C118.333 50 114.583 30.1667 107.75 9.5C100.917 -11.1667 91.6667 -31.3333 80 -51C68.3333 -31.3333 59.0833 -11.1667 52.25 9.5C45.4167 30.1667 41.6667 50 41 69C47.6667 74.6667 54.6667 81.4167 62 89.25C69.3333 97.0833 75.3333 104.667 80 112ZM119 230C131.333 226 144.167 220.167 157.5 212.5C170.833 204.833 183.25 194.417 194.75 181.25C206.25 168.083 216.083 151.667 224.25 132C232.417 112.333 237.333 88.6667 239 61C207.667 65.6667 180.167 76.0833 156.5 92.25C132.833 108.417 114.667 129 102 154C106 164.667 109.417 176.333 112.25 189C115.083 201.667 117.333 215.333 119 230Z" fill="white"/>
</svg>
