<svg width="137" height="136" viewBox="0 0 137 136" fill="none" xmlns="http://www.w3.org/2000/svg">
<path d="M16 160C11.6 160 7.83333 158.433 4.7 155.3C1.56667 152.167 0 148.4 0 144V48C0 43.6 1.56667 39.8333 4.7 36.7C7.83333 33.5667 11.6 32 16 32H48V16C48 11.6 49.5667 7.83333 52.7 4.7C55.8333 1.56667 59.6 0 64 0H96C100.4 0 104.167 1.56667 107.3 4.7C110.433 7.83333 112 11.6 112 16V32H144C148.4 32 152.167 33.5667 155.3 36.7C158.433 39.8333 160 43.6 160 48V144C160 148.4 158.433 152.167 155.3 155.3C152.167 158.433 148.4 160 144 160H16ZM16 144H144V48H16V144ZM64 32H96V16H64V32ZM16 144V48V144ZM72 104V128H88V104H112V88H88V64H72V88H48V104H72Z" fill="white"/>
</svg>
